# xmcd CD database file
#
# Track frame offsets:
#	150
#	19667
#	45707
#	68175
#	85929
#	106165
#	124302
#	144712
#	171865
#	195385
#	213395
#	240122
#	257472
#	275365
#	292822
#
# Disc length: 4204 seconds
#
# Revision: 0
# Processed by: cddbd v1.5.2PL0 Copyright (c) Steve Scherf et al.
# Submitted via: CDex 1.70beta2
#
DISCID=cc106a0f
DTITLE=Various Artist - authentica frontier
DYEAR=2005
DGENRE=Jazz
TTITLE0=奥山みなこ - Gonna Be Alright
TTITLE1=モダーン今夜 - 星屑サンバ
TTITLE2=Saigenji - Fragile
TTITLE3=東京エスムジカ - ポレポレ
TTITLE4=古明地洋哉 - こころ
TTITLE5=高鈴 - 嘆くギター
TTITLE6=湯川潮音 - 3:15
TTITLE7=vividblaze - Marin (マラン)
TTITLE8=Asa Festoon - ナツハヨル
TTITLE9=flex life - さざなみぱっしょん
TTITLE10=ji ma ma - パッピー
TTITLE11=Natural High - 桜
TTITLE12=NIRGILIS - zero
TTITLE13=Boogaloob - イト
TTITLE14=高宮マキ - Blue Butterfly (English version)
EXTD=YEAR: 2005
EXTT0=
EXTT1=
EXTT2=
EXTT3=
EXTT4=
EXTT5=
EXTT6=
EXTT7=
EXTT8=
EXTT9=
EXTT10=
EXTT11=
EXTT12=
EXTT13=
EXTT14=
PLAYORDER=
